<?xml version="1.0" standalone="no"?>
<!DOCTYPE svg PUBLIC "-//W3C//DTD SVG 20010904//EN"
 "http://www.w3.org/TR/2001/REC-SVG-20010904/DTD/svg10.dtd">
<svg version="1.0" xmlns="http://www.w3.org/2000/svg"
 width="512.000000pt" height="512.000000pt" viewBox="0 0 512.000000 512.000000"
 preserveAspectRatio="xMidYMid meet">

<g transform="translate(0.000000,512.000000) scale(0.100000,-0.100000)"
fill="#000000" stroke="none">
<path d="M815 2771 c-50 -21 -71 -76 -50 -127 32 -78 148 -72 175 10 24 74
-55 147 -125 117z"/>
<path d="M1170 2773 c-50 -18 -76 -70 -60 -119 23 -69 -143 -64 1938 -64
l1884 0 29 29 c48 48 31 128 -32 150 -23 8 -554 11 -1888 10 -1021 0 -1863 -3
-1871 -6z"/>
<path d="M64 2330 c-39 -16 -66 -61 -60 -100 17 -110 186 -106 186 5 0 47 -14
71 -50 90 -32 17 -45 18 -76 5z"/>
<path d="M404 2326 c-57 -25 -68 -103 -22 -153 l21 -23 1394 0 1394 0 24 25
c36 35 35 102 -1 136 l-26 24 -1376 2 c-1136 2 -1382 0 -1408 -11z"/>
<path d="M812 1885 c-53 -23 -74 -99 -38 -144 6 -8 26 -20 44 -28 27 -11 37
-11 67 2 78 32 78 138 1 170 -41 18 -33 18 -74 0z"/>
<path d="M1175 1893 c-28 -7 -62 -41 -69 -69 -4 -13 0 -40 8 -59 29 -70 -91
-65 1716 -65 1749 0 1682 -2 1709 48 19 36 13 89 -13 119 l-24 28 -1654 1
c-909 1 -1662 0 -1673 -3z"/>
<path d="M225 1425 c-17 -17 -25 -35 -25 -60 0 -49 15 -74 56 -91 76 -32 152
44 120 120 -17 41 -42 56 -91 56 -25 0 -43 -8 -60 -25z"/>
<path d="M577 1430 c-53 -42 -42 -120 23 -152 32 -17 86 -18 675 -18 410 0
653 4 677 10 46 13 68 43 68 93 0 27 -7 45 -25 62 l-24 25 -684 0 c-671 0
-685 0 -710 -20z"/>
<path d="M2257 1430 c-53 -42 -42 -120 23 -152 33 -17 120 -18 1388 -18 1500
0 1409 -4 1437 65 13 30 13 39 1 69 -8 19 -23 39 -34 45 -15 8 -432 11 -1405
11 -1372 0 -1385 0 -1410 -20z"/>
<path d="M2439 981 c-66 -67 -3 -177 90 -156 42 9 71 49 71 95 0 30 -6 44 -31
64 -43 36 -91 35 -130 -3z"/>
<path d="M2789 981 c-39 -39 -39 -80 0 -123 l29 -33 854 -3 c628 -2 860 1 881
9 61 25 78 109 32 154 l-24 25 -871 0 -872 0 -29 -29z"/>
<path d="M1433 555 c-35 -24 -48 -77 -28 -118 29 -62 98 -75 146 -28 42 42 41
99 -2 135 -35 30 -83 34 -116 11z"/>
<path d="M1775 548 c-15 -14 -28 -38 -32 -60 -5 -33 -2 -41 30 -73 l35 -35
860 0 860 0 30 25 c16 14 32 37 35 52 7 35 -15 88 -41 102 -15 8 -285 11 -886
11 l-865 0 -26 -22z"/>
</g>
</svg>
